<?xml version="1.0" encoding="UTF-8"?>
<svg width="3104px" height="430px" viewBox="0 0 3104 430" xmlns="http://www.w3.org/2000/svg" xmlns:xlink="http://www.w3.org/1999/xlink" version="1.1">
 <!-- Generated by Pixelmator Pro 1.6.3 -->
 <g id="Unused-but-usefull"/>
 <g id="Finished-Full-Logo">
  <defs>
   <text id="string" transform="matrix(1.0 0.0 0.0 1.0 503.0 -103.0)">
    <tspan font-family="Quicksand-Light_Medium, Quicksand" font-size="500" fill="#484e57" text-decoration="none" x="1.625" y="500.0">Circulate</tspan>
    <tspan font-family="Quicksand-Light_Medium, Quicksand" font-size="500" fill="#3f84b3" text-decoration="none" x="2055.125" y="500.0">JS</tspan>
   </text>
  </defs>
  <use id="CirculateJS" xlink:href="#string"/>
  <g id="Logo-Copy">
   <path id="Ellipse" d="M430.164 215 C430.164 96.259 333.905 0 215.164 0 96.422 0 0.164 96.259 0.164 215 0.164 333.741 96.422 430 215.164 430 333.905 430 430.164 333.741 430.164 215 Z" fill="#6eb3e2" fill-opacity="1" stroke="none"/>
   <path id="Ellipse-1" d="M399.586 239.367 C399.586 153.609 330.066 84.089 244.308 84.089 158.551 84.089 89.03 153.609 89.03 239.367 89.03 325.124 158.551 394.644 244.308 394.644 330.066 394.644 399.586 325.124 399.586 239.367 Z" fill="#3f84b3" fill-opacity="1" stroke="none"/>
   <path id="Path" d="M367.23 261.567 C367.23 208.793 324.449 166.011 271.675 166.011 218.901 166.011 176.119 208.793 176.119 261.567 176.119 314.341 218.901 357.122 271.675 357.122 324.449 357.122 367.23 314.341 367.23 261.567 Z" fill="#484e57" fill-opacity="1" stroke="none"/>
  </g>
 </g>
</svg>
